<svg xmlns="http://www.w3.org/2000/svg" width="375" height="628" viewBox="0 0 375 628">
  <g id="Group_2125" data-name="Group 2125" transform="translate(0 -100)">
    <rect id="Rectangle_1106" data-name="Rectangle 1106" width="375" height="628" transform="translate(0 100)" fill="#fff"/>
    <text id="Myanmar_2D300_lottery_numbers_are_derived_from_the_SET_index_." data-name="Myanmar 2D300 lottery numbers are derived from the 
“SET index”." transform="translate(16 135)" fill="#080705" font-size="14" font-family="Aileron-Regular, Aileron"><tspan x="0" y="0">Myanmar 2D300 lottery numbers are derived from the </tspan><tspan x="0" y="22">“SET index”.</tspan></text>
    <rect id="Rectangle_970" data-name="Rectangle 970" width="344" height="40" rx="8" transform="translate(16 208)" fill="#f8f8f8"/>
    <text id="SET" transform="translate(28 234)" fill="#080705" font-size="16" font-family="Aileron-Regular, Aileron"><tspan x="0" y="0">SET</tspan></text>
    <text id="_1_643.64" data-name="1,643.64" transform="translate(81 234)" fill="#22a374" font-size="16" font-family="Aileron-Regular, Aileron"><tspan x="0" y="0">1,643.64</tspan></text>
    <text id="_10.20" data-name="+10.20" transform="translate(176 234)" fill="#22a374" font-size="16" font-family="Aileron-Regular, Aileron"><tspan x="0" y="0">+10.20</tspan></text>
    <text id="_93_081.47" data-name="93,081.47" transform="translate(265 234)" fill="#080705" font-size="16" font-family="Aileron-Regular, Aileron" opacity="0.5"><tspan x="0" y="0">93,081.47</tspan></text>
    <text id="Last" transform="translate(81 195)" fill="#080705" font-size="14" font-family="Aileron-Regular, Aileron"><tspan x="0" y="0">Last</tspan></text>
    <text id="Change" transform="translate(176 195)" fill="#080705" font-size="14" font-family="Aileron-Regular, Aileron"><tspan x="0" y="0">Change</tspan></text>
    <text id="Value_M.Baht_" data-name="Value(M.Baht)" transform="translate(265 195)" fill="#080705" font-size="14" font-family="Aileron-Regular, Aileron"><tspan x="0" y="0">Value(M.Baht)</tspan></text>
    <g id="Ellipse_1" data-name="Ellipse 1" transform="translate(65 205)" fill="none" stroke="#ffbb45" stroke-width="2">
      <ellipse cx="48" cy="23.5" rx="48" ry="23.5" stroke="none"/>
      <ellipse cx="48" cy="23.5" rx="47" ry="22.5" fill="none"/>
    </g>
    <g id="Ellipse_2" data-name="Ellipse 2" transform="translate(250 205)" fill="none" stroke="#ffbb45" stroke-width="2">
      <ellipse cx="48" cy="23.5" rx="48" ry="23.5" stroke="none"/>
      <ellipse cx="48" cy="23.5" rx="47" ry="22.5" fill="none"/>
    </g>
    <rect id="Rectangle_1100" data-name="Rectangle 1100" width="344" height="170" rx="10" transform="translate(16 279)" fill="#fef5e4"/>
    <text id="SET-2" data-name="SET" transform="translate(28 310)" fill="#080705" font-size="16" font-family="Aileron-Regular, Aileron"><tspan x="0" y="0">SET</tspan></text>
    <text id="_1_643.64-2" data-name="1,643.64" transform="translate(69 310)" fill="#080705" font-size="16" font-family="Aileron-Regular, Aileron"><tspan x="0" y="0">1,643.6</tspan><tspan y="0" fill="#ffa00d" font-family="Aileron-SemiBold, Aileron" font-weight="600" text-decoration="underline">4</tspan></text>
    <text id="Value" transform="translate(223 310)" fill="#080705" font-size="16" font-family="Aileron-Regular, Aileron"><tspan x="0" y="0">Value</tspan></text>
    <text id="_93_081.47-2" data-name="93,081.47" transform="translate(275 310)" fill="#080705" font-size="16" font-family="Aileron-Regular, Aileron"><tspan x="0" y="0">93,08</tspan><tspan y="0" fill="#ffa00d" font-family="Aileron-SemiBold, Aileron" font-weight="600" text-decoration="underline">1</tspan><tspan y="0">.47</tspan></text>
    <text id="Myanmar_2D_Lottery_number_is_41_" data-name="Myanmar 2D Lottery number is “41”" transform="translate(188 425)" fill="#ffa00d" font-size="16" font-family="Aileron-Bold, Aileron" font-weight="700"><tspan x="-136.304" y="0">Myanmar 2D Lottery number is “41”</tspan></text>
    <text id="_41" data-name="41" transform="translate(188 381)" fill="#ffa00d" font-size="32" font-family="SFProText-Bold, SF Pro Text" font-weight="700" letter-spacing="-0.02em"><tspan x="-18.664" y="0">41</tspan></text>
    <path id="arrow-3" d="M1,23.265H32.306l-4.52,4.52L28.8,28.8l6.254-6.254L28.8,16.293l-1.016,1.016,4.52,4.52H1Z" transform="translate(125.944 350.707)" fill="#ffa00d"/>
    <line id="Line_2" data-name="Line 2" y2="55" transform="translate(126.5 319)" fill="none" stroke="#ffa00d" stroke-width="1.2"/>
    <path id="arrow-3-2" data-name="arrow-3" d="M35.056,23.265H3.75l4.52,4.52L7.254,28.8,1,22.547l6.254-6.254L8.27,17.309l-4.52,4.52H35.056Z" transform="translate(212.5 350.707)" fill="#ffa00d"/>
    <line id="Line_3" data-name="Line 3" y2="55" transform="translate(321 319)" fill="none" stroke="#ffa00d" stroke-width="1.2"/>
    <line id="Line_4" data-name="Line 4" x2="74.5" y2="0.5" transform="translate(246.5 373.2)" fill="none" stroke="#ffa00d" stroke-width="1.5"/>
    <path id="arrow-3-3" data-name="arrow-3" d="M1,23.265H27.621l-3.844,4.52.864,1.016,5.318-6.254-5.318-6.254-.864,1.016,3.844,4.52H1Z" transform="translate(156.6 262.7) rotate(101)" fill="#ffa00d"/>
    <path id="arrow-3-4" data-name="arrow-3" d="M0,5.536H26.741L22.88,1.016,23.747,0l5.342,6.254-5.342,6.254-.868-1.016,3.861-4.52H0Z" transform="translate(322.226 257.059) rotate(79)" fill="#ffa00d"/>
    <text id="Myanmar_2D300_lottery_numbers_are_derived_from_the_SET_index_.-2" data-name="Myanmar 2D300 lottery numbers are derived from the 
“SET index”." transform="translate(16 478)" fill="#080705" font-size="14" font-family="Aileron-Regular, Aileron"><tspan x="0" y="0">Myanmar 2D300 lottery numbers are derived from the </tspan><tspan x="0" y="22">“SET index”.</tspan></text>
    <text id="_2021-10-27" data-name="2021-10-27" transform="translate(28 541)" fill="#080705" font-size="14" font-family="Aileron-Regular, Aileron" opacity="0.4"><tspan x="0" y="0">2021-10-27</tspan></text>
    <text id="Set-3" data-name="Set" transform="translate(145 541)" fill="#080705" font-size="14" font-family="Aileron-Regular, Aileron" opacity="0.4"><tspan x="-10.129" y="0">Set</tspan></text>
    <text id="Value-2" data-name="Value" transform="translate(220 542)" fill="#080705" font-size="14" font-family="Aileron-Regular, Aileron" opacity="0.4"><tspan x="0" y="0">Value</tspan></text>
    <text id="_2D" data-name="2D" transform="translate(329 541)" fill="#080705" font-size="14" font-family="Aileron-Regular, Aileron" opacity="0.4"><tspan x="0" y="0">2D</tspan></text>
    <g id="Group_2110" data-name="Group 2110" transform="translate(0 45)">
      <rect id="Rectangle_1101" data-name="Rectangle 1101" width="344" height="40" rx="8" transform="translate(16 560)" fill="#f8f8f8"/>
      <text id="_1" data-name="1" transform="translate(28 586)" fill="#080705" font-size="14" font-family="Aileron-Regular, Aileron"><tspan x="0" y="0">1</tspan></text>
      <text id="_1643.80" data-name="1643.80" transform="translate(135 586)" fill="#080705" font-size="14" font-family="Aileron-Regular, Aileron"><tspan x="0" y="0">1643.80</tspan></text>
      <text id="_10241.72" data-name="10241.72" transform="translate(220 586)" fill="#080705" font-size="14" font-family="Aileron-Regular, Aileron"><tspan x="0" y="0">10241.72</tspan></text>
      <text id="_33" data-name="33" transform="translate(347 586)" fill="#ffa00d" font-size="14" font-family="Aileron-Bold, Aileron" font-weight="700"><tspan x="-17.5" y="0">33</tspan></text>
      <text id="AM_09:35" data-name="AM 09:35" transform="translate(56 586)" fill="#080705" font-size="14" font-family="Aileron-Regular, Aileron"><tspan x="0" y="0">AM 09:35</tspan></text>
    </g>
    <text id="_" data-name="……" transform="translate(28 661)" fill="#080705" font-size="14" font-family="Aileron-Regular, Aileron" opacity="0.5"><tspan x="0" y="0">……</tspan></text>
    <g id="Group_2111" data-name="Group 2111" transform="translate(0 114)">
      <rect id="Rectangle_1101-2" data-name="Rectangle 1101" width="344" height="40" rx="8" transform="translate(16 560)" fill="#f8f8f8"/>
      <text id="_24" data-name="24" transform="translate(28 586)" fill="#080705" font-size="14" font-family="Aileron-Regular, Aileron"><tspan x="0" y="0">24</tspan></text>
      <text id="_1643.80-2" data-name="1643.80" transform="translate(135 586)" fill="#080705" font-size="14" font-family="Aileron-Regular, Aileron"><tspan x="0" y="0">1643.80</tspan></text>
      <text id="_10241.72-2" data-name="10241.72" transform="translate(220 586)" fill="#080705" font-size="14" font-family="Aileron-Regular, Aileron"><tspan x="0" y="0">10241.72</tspan></text>
      <text id="_58" data-name="58" transform="translate(347 586)" fill="#ffa00d" font-size="14" font-family="Aileron-Bold, Aileron" font-weight="700"><tspan x="-17.5" y="0">58</tspan></text>
      <text id="AM_11:30" data-name="AM 11:30" transform="translate(56 586)" fill="#080705" font-size="14" font-family="Aileron-Regular, Aileron"><tspan x="0" y="0">AM 11:30</tspan></text>
    </g>
    <g id="Group_2112" data-name="Group 2112">
      <rect id="Rectangle_1101-3" data-name="Rectangle 1101" width="344" height="40" rx="8" transform="translate(16 560)" fill="#f8f8f8"/>
      <text id="_1-2" data-name="1" transform="translate(28 586)" fill="#080705" font-size="14" font-family="Aileron-Regular, Aileron"><tspan x="0" y="0">1</tspan></text>
      <text id="_1643.80-3" data-name="1643.80" transform="translate(135 586)" fill="#080705" font-size="14" font-family="Aileron-Regular, Aileron"><tspan x="0" y="0">1643.80</tspan></text>
      <text id="_10241.72-3" data-name="10241.72" transform="translate(220 586)" fill="#080705" font-size="14" font-family="Aileron-Regular, Aileron"><tspan x="0" y="0">10241.72</tspan></text>
      <text id="_01" data-name="01" transform="translate(347 586)" fill="#ffa00d" font-size="14" font-family="Aileron-Bold, Aileron" font-weight="700"><tspan x="-17.5" y="0">01</tspan></text>
      <text id="AM_09:35-2" data-name="AM 09:35" transform="translate(56 586)" fill="#080705" font-size="14" font-family="Aileron-Regular, Aileron"><tspan x="0" y="0">AM 09:35</tspan></text>
    </g>
  </g>
</svg>
